REM DIRINDEX 1\2\6,1\2\7,1\2\8,1\2\9,1\3\10,1\3\11,1\4\12,1\4\13,1\4\14,1\5\15,1\5\16,1\5\17
REM DIRNAME cjc020,folder01,folder02,folder03,folder04,folder05,folder06,folder07,folder08,folder09,folder10,folder11,folder12,folder13,folder14,folder15,folder16
TITLE ""
FILE "1900_2_sec10_0951_0967.mp3" MP3
  TRACK 01 AUDIO
    TITLE "0:"
    INDEX 01 00:00:00
  TRACK 02 AUDIO
    TITLE "13:cjc020_4027"
    INDEX 01 00:00:21
  TRACK 03 AUDIO
    TITLE "0:"
    INDEX 01 00:01:44
  TRACK 04 AUDIO
    TITLE "14:cjc020_4028"
    INDEX 01 00:01:46
  TRACK 05 AUDIO
    TITLE "0:"
    INDEX 01 00:04:07
  TRACK 06 AUDIO
    TITLE "13:cjc020_4029"
    INDEX 01 00:04:62
  TRACK 07 AUDIO
    TITLE "0:"
    INDEX 01 00:05:71
  TRACK 08 AUDIO
    TITLE "14:cjc020_4030"
    INDEX 01 00:05:73
  TRACK 09 AUDIO
    TITLE "0:"
    INDEX 01 00:10:21
  TRACK 10 AUDIO
    TITLE "13:cjc020_4031"
    INDEX 01 00:11:05
  TRACK 11 AUDIO
    TITLE "0:"
    INDEX 01 00:12:16
  TRACK 12 AUDIO
    TITLE "14:cjc020_4032"
    INDEX 01 00:12:18
  TRACK 13 AUDIO
    TITLE "0:"
    INDEX 01 00:15:52
  TRACK 14 AUDIO
    TITLE "13:cjc020_4033"
    INDEX 01 00:16:30
  TRACK 15 AUDIO
    TITLE "0:"
    INDEX 01 00:17:55
  TRACK 16 AUDIO
    TITLE "14:cjc020_4034"
    INDEX 01 00:17:57
  TRACK 17 AUDIO
    TITLE "0:"
    INDEX 01 00:21:41
  TRACK 18 AUDIO
    TITLE "13:cjc020_4035"
    INDEX 01 00:22:23
  TRACK 19 AUDIO
    TITLE "0:"
    INDEX 01 00:23:32
  TRACK 20 AUDIO
    TITLE "14:cjc020_4036"
    INDEX 01 00:23:36
  TRACK 21 AUDIO
    TITLE "0:"
    INDEX 01 00:24:41
  TRACK 22 AUDIO
    TITLE "13:cjc020_4037"
    INDEX 01 00:25:21
  TRACK 23 AUDIO
    TITLE "0:"
    INDEX 01 00:26:34
  TRACK 24 AUDIO
    TITLE "14:cjc020_4038"
    INDEX 01 00:26:36
  TRACK 25 AUDIO
    TITLE "0:"
    INDEX 01 00:30:01
  TRACK 26 AUDIO
    TITLE "13:cjc020_4039"
    INDEX 01 00:30:61
  TRACK 27 AUDIO
    TITLE "0:"
    INDEX 01 00:31:67
  TRACK 28 AUDIO
    TITLE "14:cjc020_4040"
    INDEX 01 00:31:71
  TRACK 29 AUDIO
    TITLE "0:"
    INDEX 01 00:35:39
  TRACK 30 AUDIO
    TITLE "13:cjc020_4041"
    INDEX 01 00:36:19
  TRACK 31 AUDIO
    TITLE "0:"
    INDEX 01 00:37:52
  TRACK 32 AUDIO
    TITLE "14:cjc020_4042"
    INDEX 01 00:37:54
  TRACK 33 AUDIO
    TITLE "0:"
    INDEX 01 00:40:26
  TRACK 34 AUDIO
    TITLE "13:cjc020_4043"
    INDEX 01 00:41:06
  TRACK 35 AUDIO
    TITLE "0:"
    INDEX 01 00:42:10
  TRACK 36 AUDIO
    TITLE "14:cjc020_4044"
    INDEX 01 00:42:14
  TRACK 37 AUDIO
    TITLE "0:"
    INDEX 01 00:44:42
  TRACK 38 AUDIO
    TITLE "13:cjc020_4045"
    INDEX 01 00:45:20
  TRACK 39 AUDIO
    TITLE "0:"
    INDEX 01 00:46:43
  TRACK 40 AUDIO
    TITLE "14:cjc020_4046"
    INDEX 01 00:46:45
  TRACK 41 AUDIO
    TITLE "0:"
    INDEX 01 00:49:06
  TRACK 42 AUDIO
    TITLE "13:cjc020_4047"
    INDEX 01 00:49:61
  TRACK 43 AUDIO
    TITLE "0:"
    INDEX 01 00:51:09
  TRACK 44 AUDIO
    TITLE "14:cjc020_4048"
    INDEX 01 00:51:15
  TRACK 45 AUDIO
    TITLE "0:"
    INDEX 01 00:54:30
  TRACK 46 AUDIO
    TITLE "13:cjc020_4049"
    INDEX 01 00:55:14
  TRACK 47 AUDIO
    TITLE "0:"
    INDEX 01 00:56:24
  TRACK 48 AUDIO
    TITLE "14:cjc020_4050"
    INDEX 01 00:56:29
  TRACK 49 AUDIO
    TITLE "0:"
    INDEX 01 00:58:56
  TRACK 50 AUDIO
    TITLE "13:cjc020_4051"
    INDEX 01 00:59:36
  TRACK 51 AUDIO
    TITLE "0:"
    INDEX 01 01:00:39
  TRACK 52 AUDIO
    TITLE "14:cjc020_4052"
    INDEX 01 01:00:45
  TRACK 53 AUDIO
    TITLE "0:"
    INDEX 01 01:01:34
  TRACK 54 AUDIO
    TITLE "13:cjc020_4053"
    INDEX 01 01:02:14
  TRACK 55 AUDIO
    TITLE "0:"
    INDEX 01 01:03:33
  TRACK 56 AUDIO
    TITLE "14:cjc020_4054"
    INDEX 01 01:03:39
  TRACK 57 AUDIO
    TITLE "0:"
    INDEX 01 01:06:24
  TRACK 58 AUDIO
    TITLE "13:cjc020_4055"
    INDEX 01 01:07:08
  TRACK 59 AUDIO
    TITLE "0:"
    INDEX 01 01:08:31
  TRACK 60 AUDIO
    TITLE "14:cjc020_4056"
    INDEX 01 01:08:36
  TRACK 61 AUDIO
    TITLE "0:"
    INDEX 01 01:09:34
  TRACK 62 AUDIO
    TITLE "13:cjc020_4057"
    INDEX 01 01:10:12
  TRACK 63 AUDIO
    TITLE "0:"
    INDEX 01 01:11:19
  TRACK 64 AUDIO
    TITLE "14:cjc020_4058"
    INDEX 01 01:11:25
  TRACK 65 AUDIO
    TITLE "0:"
    INDEX 01 01:15:64
  TRACK 66 AUDIO
    TITLE "13:cjc020_4059"
    INDEX 01 01:16:48
  TRACK 67 AUDIO
    TITLE "0:"
    INDEX 01 01:17:53
  TRACK 68 AUDIO
    TITLE "14:cjc020_4060"
    INDEX 01 01:17:57
  TRACK 69 AUDIO
    TITLE "0:"
    INDEX 01 01:19:74
